<svg xmlns="http://www.w3.org/2000/svg" width="1400" height="900" viewBox="0 0 1400 900">
  <defs>
    <linearGradient id="bg" x1="0" y1="0" x2="1" y2="1">
      <stop offset="0" stop-color="#071126"/>
      <stop offset="0.55" stop-color="#172554"/>
      <stop offset="1" stop-color="#4f46e5"/>
    </linearGradient>
    <linearGradient id="card" x1="0" y1="0" x2="1" y2="1">
      <stop offset="0" stop-color="#1e3a8a"/>
      <stop offset="1" stop-color="#0f172a"/>
    </linearGradient>
    <filter id="glow" x="-50%" y="-50%" width="200%" height="200%">
      <feGaussianBlur stdDeviation="18" result="blur"/>
      <feColorMatrix in="blur" type="matrix" values="0 0 0 0 0.3 0 0 0 0 0.35 0 0 0 0 1 0 0 0 .8 0"/>
      <feMerge><feMergeNode/><feMergeNode in="SourceGraphic"/></feMerge>
    </filter>
  </defs>
  <rect width="1400" height="900" fill="url(#bg)"/>
  <circle cx="1120" cy="160" r="220" fill="#6366f1" opacity="0.18"/>
  <circle cx="250" cy="760" r="250" fill="#22d3ee" opacity="0.10"/>
  <g opacity="0.18" stroke="#fff">
    <path d="M0 610 C 220 520, 320 760, 520 640 S 920 510, 1400 620" fill="none"/>
    <path d="M0 660 C 240 570, 340 800, 560 690 S 960 560, 1400 690" fill="none"/>
  </g>
  <g transform="translate(820 120) rotate(8)" filter="url(#glow)">
    <rect width="320" height="610" rx="44" fill="#020617" stroke="#818cf8" stroke-width="5"/>
    <rect x="22" y="46" width="276" height="518" rx="28" fill="url(#card)"/>
    <rect x="54" y="92" width="212" height="126" rx="22" fill="#1d4ed8" opacity="0.42" stroke="#93c5fd"/>
    <circle cx="236" cy="188" r="17" fill="#22d3ee"/>
    <g fill="#6366f1">
      <circle cx="78" cy="274" r="34"/><circle cx="158" cy="274" r="34"/><circle cx="238" cy="274" r="34"/>
    </g>
    <g fill="#22d3ee">
      <rect x="64" y="348" width="198" height="12" rx="6"/>
      <rect x="64" y="404" width="154" height="12" rx="6"/>
      <rect x="64" y="460" width="214" height="12" rx="6"/>
    </g>
    <circle cx="160" cy="548" r="45" fill="#4f46e5" stroke="#93c5fd"/>
  </g>
  <g transform="translate(300 245)">
    <rect width="340" height="240" rx="32" fill="#111827" stroke="#6366f1" stroke-width="3" opacity="0.92"/>
    <rect x="34" y="50" width="220" height="24" rx="12" fill="#818cf8"/>
    <rect x="34" y="100" width="280" height="18" rx="9" fill="#22d3ee" opacity="0.9"/>
    <rect x="34" y="146" width="188" height="18" rx="9" fill="#93c5fd" opacity="0.72"/>
    <circle cx="280" cy="66" r="36" fill="#4f46e5"/>
    <text x="280" y="78" text-anchor="middle" font-family="Arial" font-size="36" font-weight="700" fill="white">%</text>
  </g>
  <g transform="translate(230 560)" filter="url(#glow)">
    <circle cx="0" cy="0" r="58" fill="#0f172a" stroke="#818cf8" stroke-width="4"/>
    <text x="0" y="14" text-anchor="middle" font-family="Arial" font-size="54" font-weight="700" fill="#22d3ee">↺</text>
  </g>
  <text x="90" y="120" font-family="Arial" font-size="42" font-weight="800" fill="white">By REWARDS</text>
  <text x="90" y="170" font-family="Arial" font-size="22" fill="#c7d2fe">Smart reward experience</text>
</svg>
