<svg xmlns="http://www.w3.org/2000/svg" width="1400" height="900" viewBox="0 0 1400 900">
  <defs>
    <linearGradient id="bg" x1="0" y1="0" x2="1" y2="1"><stop offset="0" stop-color="#020617"/><stop offset="1" stop-color="#172554"/></linearGradient>
  </defs>
  <rect width="1400" height="900" fill="url(#bg)"/>
  <circle cx="700" cy="210" r="170" fill="#4f46e5" opacity="0.20"/>
  <circle cx="1080" cy="640" r="240" fill="#22d3ee" opacity="0.10"/>
  <rect x="120" y="300" width="420" height="260" rx="30" fill="#0f172a" stroke="#6366f1" stroke-width="4"/>
  <rect x="170" y="365" width="260" height="24" rx="12" fill="#818cf8"/>
  <rect x="170" y="425" width="310" height="18" rx="9" fill="#334155"/>
  <rect x="170" y="470" width="240" height="18" rx="9" fill="#334155"/>
  <rect x="790" y="310" width="470" height="340" rx="34" fill="#0b1220" stroke="#6366f1" stroke-width="4"/>
  <polyline points="860,565 940,500 1030,525 1110,420 1200,360" fill="none" stroke="#22d3ee" stroke-width="12" stroke-linecap="round" stroke-linejoin="round"/>
  <rect x="865" y="575" width="45" height="48" rx="9" fill="#4f46e5"/>
  <rect x="955" y="530" width="45" height="93" rx="9" fill="#4f46e5"/>
  <rect x="1045" y="495" width="45" height="128" rx="9" fill="#4f46e5"/>
  <rect x="1135" y="430" width="45" height="193" rx="9" fill="#4f46e5"/>
  <circle cx="665" cy="290" r="90" fill="#111827" stroke="#22d3ee" stroke-width="6"/>
  <text x="665" y="318" text-anchor="middle" font-family="Arial" font-size="74" font-weight="700" fill="white">∞</text>
  <text x="90" y="120" font-family="Arial" font-size="42" font-weight="800" fill="white">Partner Growth</text>
  <text x="90" y="170" font-family="Arial" font-size="22" fill="#c7d2fe">Trusted merchant performance</text>
</svg>
