<svg xmlns="http://www.w3.org/2000/svg" width="1400" height="900" viewBox="0 0 1400 900">
  <defs><linearGradient id="bg" x1="0" y1="0" x2="1" y2="1"><stop offset="0" stop-color="#030712"/><stop offset="1" stop-color="#4f46e5"/></linearGradient></defs>
  <rect width="1400" height="900" fill="url(#bg)"/>
  <circle cx="1070" cy="190" r="230" fill="#818cf8" opacity="0.16"/>
  <circle cx="280" cy="690" r="260" fill="#22d3ee" opacity="0.09"/>
  <rect x="130" y="510" width="480" height="210" rx="24" fill="#172554" stroke="#6366f1" stroke-width="4"/>
  <rect x="260" y="420" width="220" height="120" rx="22" fill="#111827" stroke="#93c5fd" stroke-width="4"/>
  <path d="M300 420 C300 340 440 340 440 420" fill="none" stroke="#22d3ee" stroke-width="16" stroke-linecap="round"/>
  <rect x="770" y="200" width="330" height="550" rx="46" fill="#020617" stroke="#818cf8" stroke-width="5"/>
  <rect x="798" y="262" width="274" height="422" rx="30" fill="#172554"/>
  <circle cx="935" cy="712" r="42" fill="#4f46e5"/>
  <rect x="840" y="320" width="190" height="24" rx="12" fill="#93c5fd"/>
  <rect x="840" y="390" width="220" height="18" rx="9" fill="#22d3ee"/>
  <rect x="840" y="445" width="160" height="18" rx="9" fill="#93c5fd" opacity="0.75"/>
  <rect x="840" y="500" width="205" height="18" rx="9" fill="#93c5fd" opacity="0.55"/>
  <circle cx="1115" cy="585" r="78" fill="#0f172a" stroke="#22d3ee" stroke-width="6"/>
  <text x="1115" y="610" text-anchor="middle" font-family="Arial" font-size="70" font-weight="700" fill="#22d3ee">%</text>
  <text x="90" y="120" font-family="Arial" font-size="42" font-weight="800" fill="white">Reward Shopping</text>
  <text x="90" y="170" font-family="Arial" font-size="22" fill="#c7d2fe">Verified purchase rewards</text>
</svg>
